<?xml version="1.0" encoding="UTF-8" standalone="no"?>
<!-- Created with Inkscape (http://www.inkscape.org/) -->

<svg
   xmlns:dc="http://purl.org/dc/elements/1.1/"
   xmlns:cc="http://creativecommons.org/ns#"
   xmlns:rdf="http://www.w3.org/1999/02/22-rdf-syntax-ns#"
   xmlns:svg="http://www.w3.org/2000/svg"
   xmlns="http://www.w3.org/2000/svg"
   xmlns:xlink="http://www.w3.org/1999/xlink"
   xmlns:sodipodi="http://sodipodi.sourceforge.net/DTD/sodipodi-0.dtd"
   xmlns:inkscape="http://www.inkscape.org/namespaces/inkscape"
   width="210mm"
   height="297mm"
   viewBox="0 0 744.09448819 1052.3622047"
   id="svg2"
   version="1.1"
   inkscape:version="0.91 r13725"
   inkscape:export-filename="C:\Users\alois\Documents\test.png"
   inkscape:export-xdpi="90"
   inkscape:export-ydpi="90"
   sodipodi:docname="logo.svg">
  <defs
     id="defs4">
    <clipPath
       clipPathUnits="userSpaceOnUse"
       id="clipPath10396">
      <rect
         style="fill-opacity:1;stroke:none;stroke-width:5.02003002;stroke-miterlimit:4;stroke-dasharray:none;stroke-opacity:1"
         id="rect10398"
         width="320"
         height="1120"
         x="1000"
         y="-1547.6378" />
    </clipPath>
    <clipPath
       clipPathUnits="userSpaceOnUse"
       id="clipPath10542">
      <g
         transform="matrix(23.933333,0,0,23.933333,1120.94,-1026.688)"
         id="g10544">
        <path
           inkscape:connector-curvature="0"
           style="clip-rule:evenodd;fill-rule:evenodd"
           d="m 83.4,50 c 3.5,-3.9 6,-7.8 7.5,-11.4 1.7,-4.3 1.6,-8 -0.2,-11.1 -1.8,-3.1 -5.2,-5 -9.9,-5.7 C 76.7,21.2 72,21.3 66.7,22.3 64.9,17.4 62.7,13.4 60.1,10.4 57.1,6.8 53.7,5 50,5 c -3.7,0 -7.1,1.8 -10.1,5.4 -2.6,3.1 -4.8,7.1 -6.5,12 -5.3,-1 -10,-1.1 -14.1,-0.5 -4.8,0.7 -8.1,2.6 -9.9,5.7 -1.8,3.1 -1.9,6.8 -0.2,11.1 1.5,3.7 4,7.5 7.5,11.4 -3.5,3.9 -6.1,7.8 -7.5,11.4 -1.7,4.3 -1.6,8 0.2,11 1.8,3.1 5.2,5 9.9,5.7 4.1,0.6 8.8,0.5 14.1,-0.5 1.8,4.9 4,8.9 6.6,11.9 3,3.6 6.4,5.4 10.1,5.4 3.7,0 7.1,-1.8 10.1,-5.4 2.6,-3.1 4.8,-7.1 6.6,-12 5.3,1 10,1.2 14.1,0.6 4.7,-0.7 8.1,-2.7 9.9,-5.7 1.8,-3 1.9,-6.8 0.2,-11.1 C 89.4,57.8 86.9,53.9 83.4,50 Z M 43.9,86 C 42,83.6 40.4,80.3 39,76.4 c 3.7,-1 7.4,-2.3 11,-3.8 3.6,1.5 7.3,2.8 11,3.8 -1.4,4 -3,7.2 -4.9,9.6 -4,5 -8.3,5 -12.2,0 z M 56,14 c 1.9,2.4 3.6,5.7 4.9,9.6 -3.4,0.9 -7.1,2.2 -10.9,3.8 -3.7,-1.5 -7.4,-2.8 -11,-3.8 1.4,-3.9 3,-7.1 4.9,-9.6 3.9,-5 8.2,-5 12.1,0 z m 15,32.6 c 1.5,1.2 2.9,2.3 4.1,3.4 -0.8,0.8 -1.7,1.5 -2.6,2.3 -0.5,0.4 -1,0.8 -1.5,1.2 0,-1.2 0.1,-2.4 0.1,-3.5 0,-1 0,-2.2 -0.1,-3.4 z m -0.6,-7.8 c -0.4,-3.9 -1.1,-7.6 -2.1,-11 4.3,-0.8 8,-1.1 11.2,-0.7 3.2,0.4 5.4,1.4 6.4,3.1 1.1,1.8 0.9,4 -0.4,6.9 -1.3,2.8 -3.4,5.8 -6.3,8.9 -2.6,-2.6 -5.6,-5 -8.8,-7.2 z M 50,66.1 c -2.5,-1.1 -5.1,-2.4 -7.5,-3.8 -2.8,-1.6 -5.2,-3 -7.1,-4.3 -0.2,-2.3 -0.3,-5 -0.3,-8 0,-3 0.1,-5.7 0.3,-8 2.1,-1.4 4.5,-2.8 7.1,-4.3 2.4,-1.3 4.9,-2.6 7.4,-3.7 2.5,1.2 5,2.4 7.4,3.7 2.5,1.4 4.9,2.9 7.2,4.3 0.2,2.4 0.3,5.1 0.3,8 0,3 -0.1,5.7 -0.3,8.1 -2.1,1.4 -4.5,2.8 -7.1,4.3 -2.3,1.3 -4.8,2.6 -7.4,3.7 z M 60.5,32.6 c -0.9,-0.5 -2,-1.1 -3.1,-1.7 1.8,-0.7 3.5,-1.2 5.2,-1.7 0.4,1.7 0.8,3.4 1.1,5.2 -1.1,-0.6 -2.1,-1.2 -3.2,-1.8 z m -23,-3.4 c 1.7,0.5 3.4,1.1 5.1,1.7 -1.1,0.5 -2.1,1.1 -3.1,1.7 -1.1,0.6 -2.1,1.2 -3.1,1.8 0.3,-1.8 0.6,-3.5 1.1,-5.2 z M 29,53.5 c -1.5,-1.2 -2.9,-2.3 -4.1,-3.5 1.3,-1.1 2.6,-2.3 4.1,-3.4 0,1.1 -0.1,2.2 -0.1,3.4 0,1.2 0.1,2.4 0.1,3.5 z m 2.7,-25.8 c -0.9,3.6 -1.6,7.3 -2.1,11 -3.3,2.3 -6.3,4.7 -8.9,7.2 -2.9,-3.1 -5,-6.1 -6.3,-8.9 -1.3,-2.9 -1.4,-5.1 -0.3,-6.9 1.1,-1.7 3.2,-2.8 6.4,-3.1 1,-0.1 2,-0.2 3.1,-0.2 2.4,0 5.1,0.3 8.1,0.9 z M 14.4,63 c 1.3,-2.8 3.3,-5.8 6.2,-8.9 2.7,2.5 5.7,5 9,7.3 0.4,3.7 1.1,7.4 2,10.9 -4.3,0.8 -8,1.1 -11.2,0.7 C 17.2,72.6 15.1,71.6 14,69.8 13,68.1 13.1,65.9 14.4,63 Z m 25,4.4 c 1,0.6 2,1.2 3.2,1.7 -1.8,0.7 -3.5,1.2 -5.2,1.7 -0.4,-1.7 -0.7,-3.4 -1,-5.1 1,0.6 2,1.2 3,1.7 z m 23.2,3.5 c -1.7,-0.5 -3.4,-1 -5.2,-1.7 1,-0.5 2.1,-1.1 3.2,-1.7 1,-0.6 2,-1.2 3,-1.7 -0.3,1.8 -0.6,3.5 -1,5.1 z m 5.7,1.4 c 0.9,-3.5 1.6,-7.2 2.1,-11 3.2,-2.3 6.2,-4.7 8.9,-7.2 2.9,3.1 5,6.1 6.2,8.9 1.3,2.9 1.4,5.1 0.4,6.9 -1,1.7 -3.2,2.8 -6.4,3.2 -0.9,0.1 -1.9,0.2 -3,0.2 -2.4,-0.1 -5.2,-0.4 -8.2,-1 z"
           id="path10546" />
      </g>
    </clipPath>
  </defs>
  <sodipodi:namedview
     id="base"
     pagecolor="#ffffff"
     bordercolor="#666666"
     borderopacity="1.0"
     inkscape:pageopacity="0.0"
     inkscape:pageshadow="2"
     inkscape:zoom="0.50000001"
     inkscape:cx="1265.7844"
     inkscape:cy="499.17882"
     inkscape:document-units="px"
     inkscape:current-layer="layer1"
     showgrid="true"
     showguides="true"
     inkscape:window-width="1580"
     inkscape:window-height="837"
     inkscape:window-x="113"
     inkscape:window-y="34"
     inkscape:window-maximized="0">
    <inkscape:grid
       type="xygrid"
       id="grid9156" />
  </sodipodi:namedview>
  <metadata
     id="metadata7">
    <rdf:RDF>
      <cc:Work
         rdf:about="">
        <dc:format>image/svg+xml</dc:format>
        <dc:type
           rdf:resource="http://purl.org/dc/dcmitype/StillImage" />
        <dc:title />
      </cc:Work>
    </rdf:RDF>
  </metadata>
  <g
     inkscape:label="Layer 1"
     inkscape:groupmode="layer"
     id="layer1">
    <g
       id="g10434"
       transform="matrix(0.37142958,0,0,0.37142958,-489.04969,337.28819)"
       inkscape:export-xdpi="5.000247"
       inkscape:export-ydpi="5.000247"
       clip-path="url(#clipPath10542)">
      <circle
         inkscape:tile-y0="-947.63782"
         inkscape:tile-x0="2000"
         inkscape:tile-h="640"
         inkscape:tile-w="640"
         inkscape:tile-cy="169.97863"
         inkscape:tile-cx="2320"
         inkscape:transform-center-y="-797.61645"
         r="320"
         cy="-627.63782"
         cx="2320"
         id="path9950"
         style="fill-opacity:1;stroke:none;stroke-width:5.02003002;stroke-miterlimit:4;stroke-dasharray:none;stroke-opacity:1" />
      <use
         height="100%"
         width="100%"
         style="fill:#310305;stroke:#310305"
         inkscape:transform-center-y="-797.61645"
         id="use10144"
         xlink:href="#path9950"
         inkscape:tiled-clone-of="#path9950"
         y="0"
         x="0" />
      <use
         height="100%"
         width="100%"
         style="fill:#6d070b;stroke:#6d070b"
         inkscape:transform-center-y="-697.91439"
         id="use10146"
         transform="matrix(0.875,0,0,0.875,290,21.247329)"
         xlink:href="#path9950"
         inkscape:tiled-clone-of="#path9950"
         y="0"
         x="0" />
      <use
         height="100%"
         width="100%"
         style="fill:#a90a11;stroke:#a90a11"
         inkscape:transform-center-y="-598.21234"
         id="use10148"
         transform="matrix(0.75,0,0,0.75,580,42.494658)"
         xlink:href="#path9950"
         inkscape:tiled-clone-of="#path9950"
         y="0"
         x="0" />
      <use
         height="100%"
         width="100%"
         style="fill:#e50e17;stroke:#e50e17"
         inkscape:transform-center-y="-498.51028"
         id="use10150"
         transform="matrix(0.625,0,0,0.625,870,63.741987)"
         xlink:href="#path9950"
         inkscape:tiled-clone-of="#path9950"
         y="0"
         x="0" />
      <use
         height="100%"
         width="100%"
         style="fill:#f34048;stroke:#f34048"
         inkscape:transform-center-y="-398.80823"
         id="use10152"
         transform="matrix(0.5,0,0,0.5,1160,84.989316)"
         xlink:href="#path9950"
         inkscape:tiled-clone-of="#path9950"
         y="0"
         x="0" />
      <use
         height="100%"
         width="100%"
         style="fill:#f77c81;stroke:#f77c81"
         inkscape:transform-center-y="-299.10616"
         id="use10154"
         transform="matrix(0.375,0,0,0.375,1450,106.23665)"
         xlink:href="#path9950"
         inkscape:tiled-clone-of="#path9950"
         y="0"
         x="0" />
      <use
         height="100%"
         width="100%"
         style="fill:#fbb8bb;stroke:#fbb8bb"
         inkscape:transform-center-y="-199.40412"
         id="use10156"
         transform="matrix(0.25,0,0,0.25,1740,127.48397)"
         xlink:href="#path9950"
         inkscape:tiled-clone-of="#path9950"
         y="0"
         x="0" />
      <use
         height="100%"
         width="100%"
         style="fill:#fef4f4;stroke:#fef4f4"
         inkscape:transform-center-y="-99.70206"
         id="use10158"
         transform="matrix(0.125,0,0,0.125,2030,148.7313)"
         xlink:href="#path9950"
         inkscape:tiled-clone-of="#path9950"
         y="0"
         x="0" />
      <use
         height="100%"
         width="100%"
         style="fill:#321803;stroke:#321803"
         inkscape:transform-center-y="-690.75612"
         inkscape:transform-center-x="-398.80822"
         id="use10160"
         transform="matrix(0.8660254,0.5,-0.5,0.8660254,395.81038,-1137.2272)"
         xlink:href="#path9950"
         inkscape:tiled-clone-of="#path9950"
         y="0"
         x="0" />
      <use
         height="100%"
         width="100%"
         style="fill:#6e3607;stroke:#6e3607"
         inkscape:transform-center-y="-604.41159"
         inkscape:transform-center-x="-348.9572"
         id="use10162"
         transform="matrix(0.75777223,0.4375,-0.4375,0.75777223,636.33408,-973.82645)"
         xlink:href="#path9950"
         inkscape:tiled-clone-of="#path9950"
         y="0"
         x="0" />
      <use
         height="100%"
         width="100%"
         style="fill:#aa530a;stroke:#aa530a"
         inkscape:transform-center-y="-518.06708"
         inkscape:transform-center-x="-299.10616"
         id="use10164"
         transform="matrix(0.64951905,0.375,-0.375,0.64951905,876.85778,-810.42573)"
         xlink:href="#path9950"
         inkscape:tiled-clone-of="#path9950"
         y="0"
         x="0" />
      <use
         height="100%"
         width="100%"
         style="fill:#e6700e;stroke:#e6700e"
         inkscape:transform-center-y="-431.72257"
         inkscape:transform-center-x="-249.25516"
         id="use10166"
         transform="matrix(0.54126588,0.3125,-0.3125,0.54126588,1117.3815,-647.025)"
         xlink:href="#path9950"
         inkscape:tiled-clone-of="#path9950"
         y="0"
         x="0" />
      <use
         height="100%"
         width="100%"
         style="fill:#f39241;stroke:#f39241"
         inkscape:transform-center-y="-345.37805"
         inkscape:transform-center-x="-199.40412"
         id="use10168"
         transform="matrix(0.4330127,0.25,-0.25,0.4330127,1357.9052,-483.62427)"
         xlink:href="#path9950"
         inkscape:tiled-clone-of="#path9950"
         y="0"
         x="0" />
      <use
         height="100%"
         width="100%"
         style="fill:#f7b47d;stroke:#f7b47d"
         inkscape:transform-center-y="-259.03355"
         inkscape:transform-center-x="-149.5531"
         id="use10170"
         transform="matrix(0.32475953,0.1875,-0.1875,0.32475953,1598.4289,-320.22355)"
         xlink:href="#path9950"
         inkscape:tiled-clone-of="#path9950"
         y="0"
         x="0" />
      <use
         height="100%"
         width="100%"
         style="fill:#fbd7b9;stroke:#fbd7b9"
         inkscape:transform-center-y="-172.68903"
         inkscape:transform-center-x="-99.702059"
         id="use10172"
         transform="matrix(0.21650635,0.125,-0.125,0.21650635,1838.9526,-156.82282)"
         xlink:href="#path9950"
         inkscape:tiled-clone-of="#path9950"
         y="0"
         x="0" />
      <use
         height="100%"
         width="100%"
         style="fill:#fef9f5;stroke:#fef9f5"
         inkscape:transform-center-y="-86.344516"
         inkscape:transform-center-x="-49.851041"
         id="use10174"
         transform="matrix(0.10825318,0.0625,-0.0625,0.10825318,2079.4763,6.5779059)"
         xlink:href="#path9950"
         inkscape:tiled-clone-of="#path9950"
         y="0"
         x="0" />
      <use
         height="100%"
         width="100%"
         style="fill:#333103;stroke:#333103"
         inkscape:transform-center-y="-398.80821"
         inkscape:transform-center-x="-690.75609"
         id="use10176"
         transform="matrix(0.5,0.8660254,-0.8660254,0.5,1307.2058,-1924.1896)"
         xlink:href="#path9950"
         inkscape:tiled-clone-of="#path9950"
         y="0"
         x="0" />
      <use
         height="100%"
         width="100%"
         style="fill:#6f6a07;stroke:#6f6a07"
         inkscape:transform-center-y="-348.9572"
         inkscape:transform-center-x="-604.41161"
         id="use10178"
         transform="matrix(0.4375,0.75777223,-0.75777223,0.4375,1433.8051,-1662.4186)"
         xlink:href="#path9950"
         inkscape:tiled-clone-of="#path9950"
         y="0"
         x="0" />
      <use
         height="100%"
         width="100%"
         style="fill:#aba30a;stroke:#aba30a"
         inkscape:transform-center-y="-299.10622"
         inkscape:transform-center-x="-518.06712"
         id="use10180"
         transform="matrix(0.375,0.64951905,-0.64951905,0.375,1560.4044,-1400.6476)"
         xlink:href="#path9950"
         inkscape:tiled-clone-of="#path9950"
         y="0"
         x="0" />
      <use
         height="100%"
         width="100%"
         style="fill:#e7dd0e;stroke:#e7dd0e"
         inkscape:transform-center-y="-249.25511"
         inkscape:transform-center-x="-431.72254"
         id="use10182"
         transform="matrix(0.3125,0.54126588,-0.54126588,0.3125,1687.0036,-1138.8765)"
         xlink:href="#path9950"
         inkscape:tiled-clone-of="#path9950"
         y="0"
         x="0" />
      <use
         height="100%"
         width="100%"
         style="fill:#f3eb42;stroke:#f3eb42"
         inkscape:transform-center-y="-199.40411"
         inkscape:transform-center-x="-345.37805"
         id="use10184"
         transform="matrix(0.25,0.4330127,-0.4330127,0.25,1813.6029,-877.10549)"
         xlink:href="#path9950"
         inkscape:tiled-clone-of="#path9950"
         y="0"
         x="0" />
      <use
         height="100%"
         width="100%"
         style="fill:#f7f17e;stroke:#f7f17e"
         inkscape:transform-center-y="-149.55307"
         inkscape:transform-center-x="-259.03356"
         id="use10186"
         transform="matrix(0.1875,0.32475953,-0.32475953,0.1875,1940.2022,-615.33446)"
         xlink:href="#path9950"
         inkscape:tiled-clone-of="#path9950"
         y="0"
         x="0" />
      <use
         height="100%"
         width="100%"
         style="fill:#fbf8ba;stroke:#fbf8ba"
         inkscape:transform-center-y="-99.702058"
         inkscape:transform-center-x="-172.68907"
         id="use10188"
         transform="matrix(0.125,0.21650635,-0.21650635,0.125,2066.8015,-353.56343)"
         xlink:href="#path9950"
         inkscape:tiled-clone-of="#path9950"
         y="0"
         x="0" />
      <use
         height="100%"
         width="100%"
         style="fill:#fefef6;stroke:#fefef6"
         inkscape:transform-center-y="-49.851018"
         inkscape:transform-center-x="-86.34449"
         id="use10190"
         transform="matrix(0.0625,0.10825318,-0.10825318,0.0625,2193.4007,-91.792399)"
         xlink:href="#path9950"
         inkscape:tiled-clone-of="#path9950"
         y="0"
         x="0" />
      <use
         height="100%"
         width="100%"
         style="fill:#1e3403;stroke:#1e3403"
         inkscape:transform-center-y="-3.261609e-005"
         inkscape:transform-center-x="-797.61642"
         id="use10192"
         transform="matrix(0,1,-1,0,2489.9786,-2150.0214)"
         xlink:href="#path9950"
         inkscape:tiled-clone-of="#path9950"
         y="0"
         x="0" />
      <use
         height="100%"
         width="100%"
         style="fill:#417007;stroke:#417007"
         inkscape:transform-center-y="-3.261609e-005"
         inkscape:transform-center-x="-697.91439"
         id="use10194"
         transform="matrix(0,0.875,-0.875,0,2468.7313,-1860.0214)"
         xlink:href="#path9950"
         inkscape:tiled-clone-of="#path9950"
         y="0"
         x="0" />
      <use
         height="100%"
         width="100%"
         style="fill:#63ac0b;stroke:#63ac0b"
         inkscape:transform-center-y="-3.261609e-005"
         inkscape:transform-center-x="-598.21236"
         id="use10196"
         transform="matrix(0,0.75,-0.75,0,2447.484,-1570.0214)"
         xlink:href="#path9950"
         inkscape:tiled-clone-of="#path9950"
         y="0"
         x="0" />
      <use
         height="100%"
         width="100%"
         style="fill:#86e80e;stroke:#86e80e"
         inkscape:transform-center-y="-3.261609e-005"
         inkscape:transform-center-x="-498.51024"
         id="use10198"
         transform="matrix(0,0.625,-0.625,0,2426.2366,-1280.0214)"
         xlink:href="#path9950"
         inkscape:tiled-clone-of="#path9950"
         y="0"
         x="0" />
      <use
         height="100%"
         width="100%"
         style="fill:#a4f343;stroke:#a4f343"
         inkscape:transform-center-x="-398.80821"
         id="use10200"
         transform="matrix(0,0.5,-0.5,0,2404.9893,-990.02137)"
         xlink:href="#path9950"
         inkscape:tiled-clone-of="#path9950"
         y="0"
         x="0" />
      <use
         height="100%"
         width="100%"
         style="fill:#c1f77f;stroke:#c1f77f"
         inkscape:transform-center-x="-299.10618"
         id="use10202"
         transform="matrix(0,0.375,-0.375,0,2382.3278,-700.02137)"
         xlink:href="#path9950"
         inkscape:tiled-clone-of="#path9950"
         y="0"
         x="0" />
      <use
         height="100%"
         width="100%"
         style="fill:#defbbb;stroke:#defbbb"
         inkscape:transform-center-x="-199.40415"
         id="use10204"
         transform="matrix(0,0.25,-0.25,0,2362.4947,-410.02137)"
         xlink:href="#path9950"
         inkscape:tiled-clone-of="#path9950"
         y="0"
         x="0" />
      <use
         height="100%"
         width="100%"
         style="fill:#fbfef7;stroke:#fbfef7"
         inkscape:transform-center-x="-99.702027"
         id="use10206"
         transform="matrix(0,0.125,-0.125,0,2341.2473,-120.02137)"
         xlink:href="#path9950"
         inkscape:tiled-clone-of="#path9950"
         y="0"
         x="0" />
      <use
         height="100%"
         width="100%"
         style="fill:#063503;stroke:#063503"
         inkscape:transform-center-y="398.8082"
         inkscape:transform-center-x="-690.75609"
         id="use10208"
         transform="matrix(-0.5,0.8660254,-0.8660254,-0.5,3627.2058,-1754.211)"
         xlink:href="#path9950"
         inkscape:tiled-clone-of="#path9950"
         y="0"
         x="0" />
      <use
         height="100%"
         width="100%"
         style="fill:#0c7107;stroke:#0c7107"
         inkscape:transform-center-y="348.95719"
         inkscape:transform-center-x="-604.41161"
         id="use10210"
         transform="matrix(-0.4375,0.75777223,-0.75777223,-0.4375,3463.8051,-1513.6873)"
         xlink:href="#path9950"
         inkscape:tiled-clone-of="#path9950"
         y="0"
         x="0" />
      <use
         height="100%"
         width="100%"
         style="fill:#13ad0b;stroke:#13ad0b"
         inkscape:transform-center-y="299.10614"
         inkscape:transform-center-x="-518.06712"
         id="use10212"
         transform="matrix(-0.375,0.64951905,-0.64951905,-0.375,3300.4044,-1273.1636)"
         xlink:href="#path9950"
         inkscape:tiled-clone-of="#path9950"
         y="0"
         x="0" />
      <use
         height="100%"
         width="100%"
         style="fill:#1ae90e;stroke:#1ae90e"
         inkscape:transform-center-y="249.25513"
         inkscape:transform-center-x="-431.72254"
         id="use10214"
         transform="matrix(-0.3125,0.54126588,-0.54126588,-0.3125,3137.0036,-1032.6399)"
         xlink:href="#path9950"
         inkscape:tiled-clone-of="#path9950"
         y="0"
         x="0" />
      <use
         height="100%"
         width="100%"
         style="fill:#4df444;stroke:#4df444"
         inkscape:transform-center-y="199.40411"
         inkscape:transform-center-x="-345.37805"
         id="use10216"
         transform="matrix(-0.25,0.4330127,-0.4330127,-0.25,2973.6029,-792.11618)"
         xlink:href="#path9950"
         inkscape:tiled-clone-of="#path9950"
         y="0"
         x="0" />
      <use
         height="100%"
         width="100%"
         style="fill:#86f780;stroke:#86f780"
         inkscape:transform-center-y="149.55309"
         inkscape:transform-center-x="-259.03356"
         id="use10218"
         transform="matrix(-0.1875,0.32475953,-0.32475953,-0.1875,2810.2022,-551.59248)"
         xlink:href="#path9950"
         inkscape:tiled-clone-of="#path9950"
         y="0"
         x="0" />
      <use
         height="100%"
         width="100%"
         style="fill:#bffbbc;stroke:#bffbbc"
         inkscape:transform-center-y="99.702057"
         inkscape:transform-center-x="-172.68907"
         id="use10220"
         transform="matrix(-0.125,0.21650635,-0.21650635,-0.125,2646.8015,-311.06877)"
         xlink:href="#path9950"
         inkscape:tiled-clone-of="#path9950"
         y="0"
         x="0" />
      <use
         height="100%"
         width="100%"
         style="fill:#f8fff8;stroke:#f8fff8"
         inkscape:transform-center-y="49.851039"
         inkscape:transform-center-x="-86.34449"
         id="use10222"
         transform="matrix(-0.0625,0.10825318,-0.10825318,-0.0625,2483.4007,-70.54507)"
         xlink:href="#path9950"
         inkscape:tiled-clone-of="#path9950"
         y="0"
         x="0" />
      <use
         height="100%"
         width="100%"
         style="fill:#03361a;stroke:#03361a"
         inkscape:transform-center-y="690.75611"
         inkscape:transform-center-x="-398.80828"
         id="use10224"
         transform="matrix(-0.8660254,0.5,-0.5,-0.8660254,4414.1683,-842.81555)"
         xlink:href="#path9950"
         inkscape:tiled-clone-of="#path9950"
         y="0"
         x="0" />
      <use
         height="100%"
         width="100%"
         style="fill:#077237;stroke:#077237"
         inkscape:transform-center-y="604.4116"
         inkscape:transform-center-x="-348.95717"
         id="use10226"
         transform="matrix(-0.75777223,0.4375,-0.4375,-0.75777223,4152.3972,-716.21628)"
         xlink:href="#path9950"
         inkscape:tiled-clone-of="#path9950"
         y="0"
         x="0" />
      <use
         height="100%"
         width="100%"
         style="fill:#0bae54;stroke:#0bae54"
         inkscape:transform-center-y="518.06708"
         inkscape:transform-center-x="-299.10619"
         id="use10228"
         transform="matrix(-0.64951905,0.375,-0.375,-0.64951905,3890.6262,-589.61701)"
         xlink:href="#path9950"
         inkscape:tiled-clone-of="#path9950"
         y="0"
         x="0" />
      <use
         height="100%"
         width="100%"
         style="fill:#0eea70;stroke:#0eea70"
         inkscape:transform-center-y="431.72257"
         inkscape:transform-center-x="-249.25518"
         id="use10230"
         transform="matrix(-0.54126588,0.3125,-0.3125,-0.54126588,3628.8552,-463.01773)"
         xlink:href="#path9950"
         inkscape:tiled-clone-of="#path9950"
         y="0"
         x="0" />
      <use
         height="100%"
         width="100%"
         style="fill:#45f493;stroke:#45f493"
         inkscape:transform-center-y="345.37805"
         inkscape:transform-center-x="-199.40409"
         id="use10232"
         transform="matrix(-0.4330127,0.25,-0.25,-0.4330127,3367.0841,-336.41846)"
         xlink:href="#path9950"
         inkscape:tiled-clone-of="#path9950"
         y="0"
         x="0" />
      <use
         height="100%"
         width="100%"
         style="fill:#81f7b6;stroke:#81f7b6"
         inkscape:transform-center-y="259.03354"
         inkscape:transform-center-x="-149.55308"
         id="use10234"
         transform="matrix(-0.32475953,0.1875,-0.1875,-0.32475953,3105.3131,-209.81919)"
         xlink:href="#path9950"
         inkscape:tiled-clone-of="#path9950"
         y="0"
         x="0" />
      <use
         height="100%"
         width="100%"
         style="fill:#bdfbd8;stroke:#bdfbd8"
         inkscape:transform-center-y="172.68903"
         inkscape:transform-center-x="-99.702095"
         id="use10236"
         transform="matrix(-0.21650635,0.125,-0.125,-0.21650635,2843.5421,-83.219914)"
         xlink:href="#path9950"
         inkscape:tiled-clone-of="#path9950"
         y="0"
         x="0" />
      <use
         height="100%"
         width="100%"
         style="fill:#f9fffb;stroke:#f9fffb"
         inkscape:transform-center-y="86.344516"
         inkscape:transform-center-x="-49.850986"
         id="use10238"
         transform="matrix(-0.10825318,0.0625,-0.0625,-0.10825318,2581.771,43.379359)"
         xlink:href="#path9950"
         inkscape:tiled-clone-of="#path9950"
         y="0"
         x="0" />
      <use
         height="100%"
         width="100%"
         style="fill:#033734;stroke:#033734"
         inkscape:transform-center-y="797.61645"
         id="use10240"
         transform="matrix(-1,0,0,-1,4640,339.95727)"
         xlink:href="#path9950"
         inkscape:tiled-clone-of="#path9950"
         y="0"
         x="0" />
      <use
         height="100%"
         width="100%"
         style="fill:#07736d;stroke:#07736d"
         inkscape:transform-center-y="697.9144"
         id="use10242"
         transform="matrix(-0.875,0,0,-0.875,4350,318.70994)"
         xlink:href="#path9950"
         inkscape:tiled-clone-of="#path9950"
         y="0"
         x="0" />
      <use
         height="100%"
         width="100%"
         style="fill:#0bafa6;stroke:#0bafa6"
         inkscape:transform-center-y="598.21234"
         id="use10244"
         transform="matrix(-0.75,0,0,-0.75,4060,297.46261)"
         xlink:href="#path9950"
         inkscape:tiled-clone-of="#path9950"
         y="0"
         x="0" />
      <use
         height="100%"
         width="100%"
         style="fill:#0eebdf;stroke:#0eebdf"
         inkscape:transform-center-y="498.51028"
         id="use10246"
         transform="matrix(-0.625,0,0,-0.625,3770,276.21528)"
         xlink:href="#path9950"
         inkscape:tiled-clone-of="#path9950"
         y="0"
         x="0" />
      <use
         height="100%"
         width="100%"
         style="fill:#45f4ea;stroke:#45f4ea"
         inkscape:transform-center-y="398.80823"
         id="use10248"
         transform="matrix(-0.5,0,0,-0.5,3480,254.96795)"
         xlink:href="#path9950"
         inkscape:tiled-clone-of="#path9950"
         y="0"
         x="0" />
      <use
         height="100%"
         width="100%"
         style="fill:#82f7f1;stroke:#82f7f1"
         inkscape:transform-center-y="299.10617"
         id="use10250"
         transform="matrix(-0.375,0,0,-0.375,3190,233.72062)"
         xlink:href="#path9950"
         inkscape:tiled-clone-of="#path9950"
         y="0"
         x="0" />
      <use
         height="100%"
         width="100%"
         style="fill:#befbf8;stroke:#befbf8"
         inkscape:transform-center-y="199.40411"
         id="use10252"
         transform="matrix(-0.25,0,0,-0.25,2900,212.47329)"
         xlink:href="#path9950"
         inkscape:tiled-clone-of="#path9950"
         y="0"
         x="0" />
      <use
         height="100%"
         width="100%"
         style="fill:#fafffe;stroke:#fafffe"
         inkscape:transform-center-y="99.702055"
         id="use10254"
         transform="matrix(-0.125,0,0,-0.125,2610,191.22596)"
         xlink:href="#path9950"
         inkscape:tiled-clone-of="#path9950"
         y="0"
         x="0" />
      <use
         height="100%"
         width="100%"
         style="fill:#032138;stroke:#032138"
         inkscape:transform-center-y="690.75606"
         inkscape:transform-center-x="398.80824"
         id="use10256"
         transform="matrix(-0.8660254,-0.5,0.5,-0.8660254,4244.1896,1477.1844)"
         xlink:href="#path9950"
         inkscape:tiled-clone-of="#path9950"
         y="0"
         x="0" />
      <use
         height="100%"
         width="100%"
         style="fill:#074474;stroke:#074474"
         inkscape:transform-center-y="604.41158"
         inkscape:transform-center-x="348.95722"
         id="use10258"
         transform="matrix(-0.75777223,-0.4375,0.4375,-0.75777223,4003.6659,1313.7837)"
         xlink:href="#path9950"
         inkscape:tiled-clone-of="#path9950"
         y="0"
         x="0" />
      <use
         height="100%"
         width="100%"
         style="fill:#0b67b0;stroke:#0b67b0"
         inkscape:transform-center-y="518.06709"
         inkscape:transform-center-x="299.10618"
         id="use10260"
         transform="matrix(-0.64951905,-0.375,0.375,-0.64951905,3763.1422,1150.383)"
         xlink:href="#path9950"
         inkscape:tiled-clone-of="#path9950"
         y="0"
         x="0" />
      <use
         height="100%"
         width="100%"
         style="fill:#0e8aec;stroke:#0e8aec"
         inkscape:transform-center-y="431.72257"
         inkscape:transform-center-x="249.25516"
         id="use10262"
         transform="matrix(-0.54126588,-0.3125,0.3125,-0.54126588,3522.6185,986.98227)"
         xlink:href="#path9950"
         inkscape:tiled-clone-of="#path9950"
         y="0"
         x="0" />
      <use
         height="100%"
         width="100%"
         style="fill:#46a7f4;stroke:#46a7f4"
         inkscape:transform-center-y="345.37805"
         inkscape:transform-center-x="199.40412"
         id="use10264"
         transform="matrix(-0.4330127,-0.25,0.25,-0.4330127,3282.0948,823.58154)"
         xlink:href="#path9950"
         inkscape:tiled-clone-of="#path9950"
         y="0"
         x="0" />
      <use
         height="100%"
         width="100%"
         style="fill:#83c4f7;stroke:#83c4f7"
         inkscape:transform-center-y="259.03354"
         inkscape:transform-center-x="149.5531"
         id="use10266"
         transform="matrix(-0.32475953,-0.1875,0.1875,-0.32475953,3041.5711,660.18081)"
         xlink:href="#path9950"
         inkscape:tiled-clone-of="#path9950"
         y="0"
         x="0" />
      <use
         height="100%"
         width="100%"
         style="fill:#bfe0fb;stroke:#bfe0fb"
         inkscape:transform-center-y="172.68903"
         inkscape:transform-center-x="99.702059"
         id="use10268"
         transform="matrix(-0.21650635,-0.125,0.125,-0.21650635,2801.0474,496.78009)"
         xlink:href="#path9950"
         inkscape:tiled-clone-of="#path9950"
         y="0"
         x="0" />
      <use
         height="100%"
         width="100%"
         style="fill:#fbfdff;stroke:#fbfdff"
         inkscape:transform-center-y="86.344517"
         inkscape:transform-center-x="49.851041"
         id="use10270"
         transform="matrix(-0.10825318,-0.0625,0.0625,-0.10825318,2560.5237,333.37936)"
         xlink:href="#path9950"
         inkscape:tiled-clone-of="#path9950"
         y="0"
         x="0" />
      <use
         height="100%"
         width="100%"
         style="fill:#030739;stroke:#030739"
         inkscape:transform-center-y="398.80825"
         inkscape:transform-center-x="690.75609"
         id="use10272"
         transform="matrix(-0.5,-0.8660254,0.8660254,-0.5,3332.7942,2264.1469)"
         xlink:href="#path9950"
         inkscape:tiled-clone-of="#path9950"
         y="0"
         x="0" />
      <use
         height="100%"
         width="100%"
         style="fill:#070e75;stroke:#070e75"
         inkscape:transform-center-y="348.95724"
         inkscape:transform-center-x="604.41161"
         id="use10274"
         transform="matrix(-0.4375,-0.75777223,0.75777223,-0.4375,3206.1949,2002.3759)"
         xlink:href="#path9950"
         inkscape:tiled-clone-of="#path9950"
         y="0"
         x="0" />
      <use
         height="100%"
         width="100%"
         style="fill:#0b15b1;stroke:#0b15b1"
         inkscape:transform-center-y="299.10615"
         inkscape:transform-center-x="518.06712"
         id="use10276"
         transform="matrix(-0.375,-0.64951905,0.64951905,-0.375,3079.5956,1740.6048)"
         xlink:href="#path9950"
         inkscape:tiled-clone-of="#path9950"
         y="0"
         x="0" />
      <use
         height="100%"
         width="100%"
         style="fill:#0f1ced;stroke:#0f1ced"
         inkscape:transform-center-y="249.25514"
         inkscape:transform-center-x="431.72254"
         id="use10278"
         transform="matrix(-0.3125,-0.54126588,0.54126588,-0.3125,2952.9964,1478.8338)"
         xlink:href="#path9950"
         inkscape:tiled-clone-of="#path9950"
         y="0"
         x="0" />
      <use
         height="100%"
         width="100%"
         style="fill:#4752f4;stroke:#4752f4"
         inkscape:transform-center-y="199.40416"
         inkscape:transform-center-x="345.37805"
         id="use10280"
         transform="matrix(-0.25,-0.4330127,0.4330127,-0.25,2826.3971,1217.0628)"
         xlink:href="#path9950"
         inkscape:tiled-clone-of="#path9950"
         y="0"
         x="0" />
      <use
         height="100%"
         width="100%"
         style="fill:#838af7;stroke:#838af7"
         inkscape:transform-center-y="149.55308"
         inkscape:transform-center-x="259.03356"
         id="use10282"
         transform="matrix(-0.1875,-0.32475953,0.32475953,-0.1875,2699.7978,955.29173)"
         xlink:href="#path9950"
         inkscape:tiled-clone-of="#path9950"
         y="0"
         x="0" />
      <use
         height="100%"
         width="100%"
         style="fill:#c0c3fb;stroke:#c0c3fb"
         inkscape:transform-center-y="99.702063"
         inkscape:transform-center-x="172.68907"
         id="use10284"
         transform="matrix(-0.125,-0.21650635,0.21650635,-0.125,2573.1985,693.5207)"
         xlink:href="#path9950"
         inkscape:tiled-clone-of="#path9950"
         y="0"
         x="0" />
      <use
         height="100%"
         width="100%"
         style="fill:#fcfcff;stroke:#fcfcff"
         inkscape:transform-center-y="49.851013"
         inkscape:transform-center-x="86.34449"
         id="use10286"
         transform="matrix(-0.0625,-0.10825318,0.10825318,-0.0625,2446.5993,431.74966)"
         xlink:href="#path9950"
         inkscape:tiled-clone-of="#path9950"
         y="0"
         x="0" />
      <use
         height="100%"
         width="100%"
         style="fill:#1b043a;stroke:#1b043a"
         inkscape:transform-center-y="-3.261609e-005"
         inkscape:transform-center-x="797.61642"
         id="use10288"
         transform="matrix(0,-1,1,0,2150.0214,2489.9786)"
         xlink:href="#path9950"
         inkscape:tiled-clone-of="#path9950"
         y="0"
         x="0" />
      <use
         height="100%"
         width="100%"
         style="fill:#380776;stroke:#380776"
         inkscape:transform-center-y="-3.261609e-005"
         inkscape:transform-center-x="697.91439"
         id="use10290"
         transform="matrix(0,-0.875,0.875,0,2171.2687,2199.9786)"
         xlink:href="#path9950"
         inkscape:tiled-clone-of="#path9950"
         y="0"
         x="0" />
      <use
         height="100%"
         width="100%"
         style="fill:#540bb2;stroke:#540bb2"
         inkscape:transform-center-y="-3.261609e-005"
         inkscape:transform-center-x="598.21236"
         id="use10292"
         transform="matrix(0,-0.75,0.75,0,2192.516,1909.9786)"
         xlink:href="#path9950"
         inkscape:tiled-clone-of="#path9950"
         y="0"
         x="0" />
      <use
         height="100%"
         width="100%"
         style="fill:#700fee;stroke:#700fee"
         inkscape:transform-center-y="-3.261609e-005"
         inkscape:transform-center-x="498.51024"
         id="use10294"
         transform="matrix(0,-0.625,0.625,0,2213.7634,1619.9786)"
         xlink:href="#path9950"
         inkscape:tiled-clone-of="#path9950"
         y="0"
         x="0" />
      <use
         height="100%"
         width="100%"
         style="fill:#9448f4;stroke:#9448f4"
         inkscape:transform-center-y="-3.261609e-005"
         inkscape:transform-center-x="398.80821"
         id="use10296"
         transform="matrix(0,-0.5,0.5,0,2235.0107,1329.9786)"
         xlink:href="#path9950"
         inkscape:tiled-clone-of="#path9950"
         y="0"
         x="0" />
      <use
         height="100%"
         width="100%"
         style="fill:#b784f7;stroke:#b784f7"
         inkscape:transform-center-y="-3.261609e-005"
         inkscape:transform-center-x="299.10618"
         id="use10298"
         transform="matrix(0,-0.375,0.375,0,2256.258,1039.9786)"
         xlink:href="#path9950"
         inkscape:tiled-clone-of="#path9950"
         y="0"
         x="0" />
      <use
         height="100%"
         width="100%"
         style="fill:#dac1fb;stroke:#dac1fb"
         inkscape:transform-center-x="199.40415"
         id="use10300"
         transform="matrix(0,-0.25,0.25,0,2277.5053,749.97863)"
         xlink:href="#path9950"
         inkscape:tiled-clone-of="#path9950"
         y="0"
         x="0" />
      <use
         height="100%"
         width="100%"
         style="fill:#fefdff;stroke:#fefdff"
         inkscape:transform-center-x="99.702027"
         id="use10302"
         transform="matrix(0,-0.125,0.125,0,2298.7527,459.97863)"
         xlink:href="#path9950"
         inkscape:tiled-clone-of="#path9950"
         y="0"
         x="0" />
      <use
         height="100%"
         width="100%"
         style="fill:#37043b;stroke:#37043b"
         inkscape:transform-center-y="-398.80817"
         inkscape:transform-center-x="690.75609"
         id="use10304"
         transform="matrix(0.5,-0.8660254,0.8660254,0.5,1012.7942,2094.1683)"
         xlink:href="#path9950"
         inkscape:tiled-clone-of="#path9950"
         y="0"
         x="0" />
      <use
         height="100%"
         width="100%"
         style="fill:#700777;stroke:#700777"
         inkscape:transform-center-y="-348.95715"
         inkscape:transform-center-x="604.41161"
         id="use10306"
         transform="matrix(0.4375,-0.75777223,0.75777223,0.4375,1176.1949,1853.6446)"
         xlink:href="#path9950"
         inkscape:tiled-clone-of="#path9950"
         y="0"
         x="0" />
      <use
         height="100%"
         width="100%"
         style="fill:#a80bb3;stroke:#a80bb3"
         inkscape:transform-center-y="-299.10621"
         inkscape:transform-center-x="518.06712"
         id="use10308"
         transform="matrix(0.375,-0.64951905,0.64951905,0.375,1339.5956,1613.1208)"
         xlink:href="#path9950"
         inkscape:tiled-clone-of="#path9950"
         y="0"
         x="0" />
      <use
         height="100%"
         width="100%"
         style="fill:#e10fef;stroke:#e10fef"
         inkscape:transform-center-y="-249.25519"
         inkscape:transform-center-x="431.72254"
         id="use10310"
         transform="matrix(0.3125,-0.54126588,0.54126588,0.3125,1502.9964,1372.5971)"
         xlink:href="#path9950"
         inkscape:tiled-clone-of="#path9950"
         y="0"
         x="0" />
      <use
         height="100%"
         width="100%"
         style="fill:#e949f4;stroke:#e949f4"
         inkscape:transform-center-y="-199.40415"
         inkscape:transform-center-x="345.37805"
         id="use10312"
         transform="matrix(0.25,-0.4330127,0.4330127,0.25,1666.3971,1132.0734)"
         xlink:href="#path9950"
         inkscape:tiled-clone-of="#path9950"
         y="0"
         x="0" />
      <use
         height="100%"
         width="100%"
         style="fill:#f085f8;stroke:#f085f8"
         inkscape:transform-center-y="-149.55309"
         inkscape:transform-center-x="259.03356"
         id="use10314"
         transform="matrix(0.1875,-0.32475953,0.32475953,0.1875,1829.7978,891.54974)"
         xlink:href="#path9950"
         inkscape:tiled-clone-of="#path9950"
         y="0"
         x="0" />
      <use
         height="100%"
         width="100%"
         style="fill:#f8c1fb;stroke:#f8c1fb"
         inkscape:transform-center-y="-99.702052"
         inkscape:transform-center-x="172.68907"
         id="use10316"
         transform="matrix(0.125,-0.21650635,0.21650635,0.125,1993.1985,651.02604)"
         xlink:href="#path9950"
         inkscape:tiled-clone-of="#path9950"
         y="0"
         x="0" />
      <use
         height="100%"
         width="100%"
         style="fill:#fffeff;stroke:#fffeff"
         inkscape:transform-center-y="-49.851034"
         inkscape:transform-center-x="86.34449"
         id="use10318"
         transform="matrix(0.0625,-0.10825318,0.10825318,0.0625,2156.5993,410.50234)"
         xlink:href="#path9950"
         inkscape:tiled-clone-of="#path9950"
         y="0"
         x="0" />
      <use
         height="100%"
         width="100%"
         style="fill:#3c0423;stroke:#3c0423"
         inkscape:transform-center-y="-690.75612"
         inkscape:transform-center-x="398.80823"
         id="use10320"
         transform="matrix(0.8660254,-0.5,0.5,0.8660254,225.83175,1182.7728)"
         xlink:href="#path9950"
         inkscape:tiled-clone-of="#path9950"
         y="0"
         x="0" />
      <use
         height="100%"
         width="100%"
         style="fill:#780747;stroke:#780747"
         inkscape:transform-center-y="-604.41164"
         inkscape:transform-center-x="348.95719"
         id="use10322"
         transform="matrix(0.75777223,-0.4375,0.4375,0.75777223,487.60278,1056.1735)"
         xlink:href="#path9950"
         inkscape:tiled-clone-of="#path9950"
         y="0"
         x="0" />
      <use
         height="100%"
         width="100%"
         style="fill:#b40b6a;stroke:#b40b6a"
         inkscape:transform-center-y="-518.06708"
         inkscape:transform-center-x="299.10618"
         id="use10324"
         transform="matrix(0.64951905,-0.375,0.375,0.64951905,749.37381,929.57427)"
         xlink:href="#path9950"
         inkscape:tiled-clone-of="#path9950"
         y="0"
         x="0" />
      <use
         height="100%"
         width="100%"
         style="fill:#f00f8e;stroke:#f00f8e"
         inkscape:transform-center-y="-431.72257"
         inkscape:transform-center-x="249.25518"
         id="use10326"
         transform="matrix(0.54126588,-0.3125,0.3125,0.54126588,1011.1448,802.975)"
         xlink:href="#path9950"
         inkscape:tiled-clone-of="#path9950"
         y="0"
         x="0" />
      <use
         height="100%"
         width="100%"
         style="fill:#f44aaa;stroke:#f44aaa"
         inkscape:transform-center-y="-345.37805"
         inkscape:transform-center-x="199.40409"
         id="use10328"
         transform="matrix(0.4330127,-0.25,0.25,0.4330127,1272.9159,676.37573)"
         xlink:href="#path9950"
         inkscape:tiled-clone-of="#path9950"
         y="0"
         x="0" />
      <use
         height="100%"
         width="100%"
         style="fill:#f886c6;stroke:#f886c6"
         inkscape:transform-center-y="-259.03355"
         inkscape:transform-center-x="149.55308"
         id="use10330"
         transform="matrix(0.32475953,-0.1875,0.1875,0.32475953,1534.6869,549.77645)"
         xlink:href="#path9950"
         inkscape:tiled-clone-of="#path9950"
         y="0"
         x="0" />
      <use
         height="100%"
         width="100%"
         style="fill:#fbc2e3;stroke:#fbc2e3"
         inkscape:transform-center-y="-172.68903"
         inkscape:transform-center-x="99.702095"
         id="use10332"
         transform="matrix(0.21650635,-0.125,0.125,0.21650635,1796.4579,423.17718)"
         xlink:href="#path9950"
         inkscape:tiled-clone-of="#path9950"
         y="0"
         x="0" />
      <use
         height="100%"
         width="100%"
         style="fill:#ffffff;stroke:#ffffff"
         inkscape:transform-center-y="-86.344512"
         inkscape:transform-center-x="49.850986"
         id="use10334"
         transform="matrix(0.10825318,-0.0625,0.0625,0.10825318,2058.229,296.57791)"
         xlink:href="#path9950"
         inkscape:tiled-clone-of="#path9950"
         y="0"
         x="0" />
      <g
         transform="matrix(-1,0,0,1,3353.2043,602.57816)"
         clip-path="url(#clipPath10396)"
         id="g10386">
        <use
           x="0"
           y="0"
           inkscape:tiled-clone-of="#path9950"
           xlink:href="#path9950"
           id="use10144-2"
           inkscape:transform-center-y="-797.61645"
           style="fill:#310305;stroke:#310305"
           width="100%"
           height="100%"
           transform="translate(-1318.8511,-599.99998)" />
        <use
           x="0"
           y="0"
           inkscape:tiled-clone-of="#path9950"
           xlink:href="#path9950"
           transform="matrix(0.875,0,0,0.875,-1028.8511,-578.75265)"
           id="use10146-4"
           inkscape:transform-center-y="-697.91439"
           style="fill:#6d070b;stroke:#6d070b"
           width="100%"
           height="100%" />
        <use
           x="0"
           y="0"
           inkscape:tiled-clone-of="#path9950"
           xlink:href="#path9950"
           transform="matrix(0.75,0,0,0.75,-738.85108,-557.50532)"
           id="use10148-1"
           inkscape:transform-center-y="-598.21234"
           style="fill:#a90a11;stroke:#a90a11"
           width="100%"
           height="100%" />
        <use
           x="0"
           y="0"
           inkscape:tiled-clone-of="#path9950"
           xlink:href="#path9950"
           transform="matrix(0.625,0,0,0.625,-448.85108,-536.25799)"
           id="use10150-0"
           inkscape:transform-center-y="-498.51028"
           style="fill:#e50e17;stroke:#e50e17"
           width="100%"
           height="100%" />
        <use
           x="0"
           y="0"
           inkscape:tiled-clone-of="#path9950"
           xlink:href="#path9950"
           transform="matrix(0.5,0,0,0.5,-158.85108,-515.01066)"
           id="use10152-2"
           inkscape:transform-center-y="-398.80823"
           style="fill:#f34048;stroke:#f34048"
           width="100%"
           height="100%" />
        <use
           x="0"
           y="0"
           inkscape:tiled-clone-of="#path9950"
           xlink:href="#path9950"
           transform="matrix(0.375,0,0,0.375,131.14892,-493.76333)"
           id="use10154-3"
           inkscape:transform-center-y="-299.10616"
           style="fill:#f77c81;stroke:#f77c81"
           width="100%"
           height="100%" />
        <use
           x="0"
           y="0"
           inkscape:tiled-clone-of="#path9950"
           xlink:href="#path9950"
           transform="matrix(0.25,0,0,0.25,421.14892,-472.51601)"
           id="use10156-9"
           inkscape:transform-center-y="-199.40412"
           style="fill:#fbb8bb;stroke:#fbb8bb"
           width="100%"
           height="100%" />
        <use
           x="0"
           y="0"
           inkscape:tiled-clone-of="#path9950"
           xlink:href="#path9950"
           transform="matrix(0.125,0,0,0.125,711.14892,-451.26868)"
           id="use10158-6"
           inkscape:transform-center-y="-99.70206"
           style="fill:#fef4f4;stroke:#fef4f4"
           width="100%"
           height="100%" />
      </g>
    </g>
  </g>
</svg>
